<?xml version="1.0" standalone="no"?>
<!DOCTYPE svg PUBLIC "-//W3C//DTD SVG 20010904//EN"
 "http://www.w3.org/TR/2001/REC-SVG-20010904/DTD/svg10.dtd">
<svg version="1.0" xmlns="http://www.w3.org/2000/svg"
 width="300.000000pt" height="133.000000pt" viewBox="0 0 300.000000 133.000000"
 preserveAspectRatio="xMidYMid meet">
<metadata>
Created by potrace 1.10, written by Peter Selinger 2001-2011
</metadata>
<g transform="translate(0.000000,133.000000) scale(0.100000,-0.100000)"
fill="#000000" stroke="none">
<path d="M762 1320 c-50 -12 -106 -55 -227 -175 -195 -192 -336 -385 -440
-600 -64 -132 -85 -197 -85 -257 1 -30 2 -32 15 -15 7 11 11 25 9 32 -3 7 12
60 32 118 l38 105 17 -27 c53 -88 229 -80 468 20 67 28 98 36 106 29 9 -7 29
-5 66 9 112 41 198 56 314 54 44 0 94 -7 110 -14 17 -7 33 -13 36 -13 12 -2
84 -56 74 -56 -6 0 5 -9 23 -20 17 -11 31 -23 30 -27 -1 -5 10 -28 26 -52 30
-47 59 -111 70 -153 8 -33 -8 -37 -55 -12 -17 8 -65 27 -107 41 -64 22 -95 27
-182 27 -58 0 -123 -5 -144 -12 -84 -24 -48 13 63 68 124 61 151 70 236 77 75
6 84 13 17 13 -128 0 -260 -56 -417 -175 -55 -42 -118 -86 -140 -97 -22 -12
-53 -31 -70 -43 -75 -54 -200 -107 -312 -130 -12 -3 -32 -9 -45 -14 -20 -9
-18 -10 17 -10 97 -2 234 53 378 150 254 173 456 193 721 70 38 -18 72 -29 77
-24 11 11 -32 138 -72 214 -46 86 -110 153 -176 186 -103 50 -275 44 -458 -15
-47 -16 -85 -26 -85 -24 0 15 108 179 146 220 108 121 249 137 359 41 29 -25
37 -29 31 -14 -4 11 -16 43 -26 70 -87 245 -206 411 -316 435 -47 11 -43 -3 9
-26 64 -29 149 -123 200 -222 25 -48 48 -98 52 -112 7 -23 7 -24 -11 -10 -10
8 -4 -6 14 -31 l32 -47 -43 21 c-51 25 -150 29 -193 7 -34 -17 -111 -76 -137
-105 -24 -28 -99 -142 -122 -189 -25 -49 -98 -85 -254 -127 -120 -32 -189 -35
-244 -11 -69 31 -76 53 -36 135 17 37 35 67 40 67 5 0 9 5 9 10 0 21 116 186
203 290 109 128 322 328 347 324 11 -2 50 20 50 28 0 4 -1 8 -2 7 -2 -1 -18
-5 -36 -9z"/>
<path d="M2220 1000 l0 -140 30 0 c30 0 30 1 30 55 0 43 4 56 18 64 29 15 42
-6 42 -66 0 -52 0 -53 30 -53 l30 0 0 64 c0 69 -12 91 -55 102 -32 8 -62 -10
-84 -54 -14 -26 -20 -31 -20 -17 0 21 17 67 18 50 1 -5 6 -3 11 5 5 8 10 41
10 73 0 57 0 57 -30 57 l-30 0 0 -140z m150 -25 c0 -8 -2 -15 -4 -15 -2 0 -6
7 -10 15 -3 8 -1 15 4 15 6 0 10 -7 10 -15z m-123 -77 c-3 -8 -6 -5 -6 6 -1
11 2 17 5 13 3 -3 4 -12 1 -19z"/>
<path d="M1326 1048 c-4 -46 -9 -107 -12 -135 l-6 -53 29 0 c28 0 31 3 37 46
3 26 6 63 7 83 0 41 3 37 39 -66 30 -85 50 -85 79 2 11 36 21 72 21 80 0 8 5
15 10 15 6 0 10 -28 10 -64 0 -84 5 -96 42 -96 26 0 29 3 25 23 -6 24 -23 214
-20 235 0 7 -13 12 -36 12 l-37 0 -24 -75 c-13 -41 -26 -75 -29 -75 -4 0 -19
34 -34 75 -27 73 -29 75 -61 75 l-33 0 -7 -82z m72 13 c11 -29 11 -33 -1 -28
-19 7 -37 -11 -37 -37 0 -10 -2 -17 -5 -14 -10 10 8 119 18 115 6 -2 17 -18
25 -36z m163 27 c0 -7 2 -33 5 -58 l5 -45 -18 26 c-10 14 -24 24 -32 21 -11
-3 -12 0 -6 14 4 11 10 27 12 37 6 19 33 23 34 5z m-96 -132 c18 7 19 -9 4
-38 -11 -20 -12 -20 -25 12 -16 37 -18 63 -3 38 5 -10 16 -15 24 -12z m-118
-18 c-3 -7 -5 -2 -5 12 0 14 2 19 5 13 2 -7 2 -19 0 -25z"/>
<path d="M2467 1124 c-15 -16 -7 -53 14 -59 30 -10 58 19 43 43 -12 18 -45 28
-57 16z"/>
<path d="M1920 1060 c0 -20 -5 -30 -15 -30 -9 0 -15 -10 -15 -26 0 -19 4 -25
15 -20 12 4 15 -4 15 -40 0 -63 13 -84 54 -84 18 0 35 3 38 6 10 10 -4 44 -18
44 -15 0 -15 3 -17 48 0 20 4 26 16 24 12 -2 17 4 17 23 0 18 -5 25 -18 25
-15 0 -18 6 -14 30 4 28 2 30 -27 30 -28 0 -31 -3 -31 -30z m42 -56 c-2 -10
-6 -31 -9 -47 -3 -15 0 -34 7 -42 13 -15 6 -35 -7 -22 -9 10 -23 119 -16 129
9 16 28 2 25 -18z"/>
<path d="M2070 1060 c0 -16 -4 -30 -10 -30 -5 0 -10 -11 -10 -25 0 -14 5 -25
10 -25 6 0 10 -17 10 -38 0 -54 23 -82 67 -82 32 0 35 2 29 23 -3 12 -6 25 -6
29 0 4 -7 5 -15 2 -12 -5 -15 2 -15 34 0 35 2 39 20 35 16 -4 20 0 20 21 0 19
-5 26 -20 26 -16 0 -20 7 -20 30 0 27 -3 30 -30 30 -27 0 -30 -3 -30 -30z m45
-40 c3 -6 3 -20 0 -31 -6 -19 -9 -20 -22 -6 -9 9 -13 23 -10 31 7 18 23 21 32
6z m10 -128 c-3 -3 -11 0 -18 7 -9 10 -8 11 6 5 10 -3 15 -9 12 -12z"/>
<path d="M1695 1018 c-31 -18 -44 -40 -45 -76 0 -61 66 -101 121 -72 13 7 19
7 19 0 0 -5 12 -10 28 -10 l27 0 0 85 0 85 -27 0 c-14 0 -28 -5 -30 -11 -3 -9
-9 -9 -25 0 -27 14 -42 14 -68 -1z m120 -35 c-2 -10 -4 -20 -4 -23 -1 -3 -5 2
-10 10 -10 15 -6 30 9 30 4 0 7 -8 5 -17z m-122 -13 c-3 -12 -8 -19 -11 -16
-5 6 5 36 12 36 2 0 2 -9 -1 -20z m87 -5 c22 -26 8 -50 -30 -50 -25 0 -36 5
-38 18 -5 23 15 47 38 47 10 0 23 -7 30 -15z m-81 -55 c11 -24 11 -24 -3 -6
-9 11 -16 24 -16 30 0 12 5 7 19 -24z m119 -5 c1 -18 -2 -23 -13 -19 -11 5
-12 11 -4 25 13 25 14 24 17 -6z"/>
<path d="M2460 945 l0 -85 30 0 30 0 0 85 0 85 -30 0 -30 0 0 -85z"/>
<path d="M2640 1023 c-35 -13 -60 -47 -60 -80 0 -76 96 -112 157 -58 32 28 27
30 -53 26 -29 -2 -43 2 -47 12 -5 12 5 14 59 12 57 -3 64 -1 64 15 0 45 -75
91 -120 73z m57 -48 c2 -5 -10 -10 -27 -10 -30 0 -36 5 -23 19 10 10 46 3 50
-9z m-76 -46 c-9 -23 -10 -22 -10 11 -1 23 2 31 9 24 7 -7 7 -19 1 -35z"/>
<path d="M2810 965 c0 -84 18 -105 90 -105 72 0 90 21 90 105 l0 65 -31 0 -32
0 6 -48 c7 -57 -2 -75 -34 -70 -22 3 -24 9 -27 61 -3 56 -4 57 -32 57 l-30 0
0 -65z m150 -60 c-7 -9 -15 -13 -17 -11 -6 6 20 36 26 30 2 -2 -2 -10 -9 -19z
m-100 -5 c0 -5 -2 -10 -4 -10 -3 0 -8 5 -11 10 -3 6 -1 10 4 10 6 0 11 -4 11
-10z"/>
<path d="M1930 480 l0 -140 30 0 c30 0 30 1 30 55 l0 55 39 0 c54 0 91 31 91
76 0 69 -36 94 -136 94 l-54 0 0 -140z m50 100 c0 -5 -5 -10 -11 -10 -5 0 -7
5 -4 10 3 6 8 10 11 10 2 0 4 -4 4 -10z m64 -23 c28 -20 16 -50 -22 -58 -32
-6 -32 -6 -32 32 0 31 4 39 18 39 10 0 26 -6 36 -13z m38 -59 c-6 -6 -7 0 -4
19 5 21 7 23 10 9 2 -10 0 -22 -6 -28z m-92 -28 c0 -4 -7 -10 -15 -14 -11 -4
-15 2 -15 21 0 21 2 24 15 13 8 -7 15 -16 15 -20z"/>
<path d="M2552 608 c-28 -28 3 -83 33 -58 8 7 15 20 15 29 0 17 -18 41 -30 41
-3 0 -11 -5 -18 -12z"/>
<path d="M2397 540 c4 -23 2 -30 -11 -30 -9 0 -16 -8 -16 -20 0 -11 7 -20 15
-20 11 0 15 -12 15 -47 0 -27 4 -53 8 -60 10 -16 54 -25 71 -14 17 11 5 51
-15 51 -9 0 -14 11 -14 35 0 28 4 35 20 35 13 0 20 7 20 20 0 13 -7 20 -20 20
-16 0 -20 7 -20 30 0 27 -3 30 -30 30 -27 0 -29 -2 -23 -30z m38 -40 c9 -15
-3 -30 -20 -24 -7 3 -11 12 -8 20 6 16 19 18 28 4z"/>
<path d="M2678 540 c3 -23 0 -30 -12 -30 -9 0 -16 -8 -16 -20 0 -11 7 -20 15
-20 11 0 15 -12 15 -50 0 -42 4 -52 25 -66 35 -23 76 -8 64 24 -5 12 -15 22
-24 22 -11 0 -15 10 -15 35 0 28 4 35 20 35 13 0 20 7 20 20 0 14 -7 20 -21
20 -18 0 -21 5 -17 30 4 28 2 30 -27 30 -29 0 -31 -2 -27 -30z m42 -50 c0 -11
-7 -20 -15 -20 -8 0 -15 9 -15 20 0 11 7 20 15 20 8 0 15 -9 15 -20z"/>
<path d="M2188 494 c-52 -28 -49 -101 5 -135 35 -22 74 -20 114 7 35 23 18 37
-36 29 -37 -5 -50 -3 -60 9 -12 14 -6 16 53 16 60 0 66 2 66 20 0 56 -82 87
-142 54z m82 -29 c11 -13 7 -15 -24 -15 -35 0 -49 13 -23 23 22 9 34 7 47 -8z
m-75 -24 c3 -5 1 -12 -5 -16 -5 -3 -10 1 -10 9 0 18 6 21 15 7z"/>
<path d="M2540 425 l0 -85 30 0 30 0 0 85 0 85 -30 0 -30 0 0 -85z"/>
<path d="M2853 498 c-12 -6 -27 -23 -33 -39 -35 -85 64 -148 147 -93 33 21 18
37 -27 30 -40 -6 -70 0 -70 15 0 5 27 9 60 9 54 0 60 2 60 20 0 12 -11 32 -25
45 -26 27 -72 32 -112 13z m77 -33 c11 -13 7 -15 -24 -15 -35 0 -49 13 -23 23
22 9 34 7 47 -8z m-76 -30 c-4 -8 -8 -15 -10 -15 -2 0 -4 7 -4 15 0 8 4 15 10
15 5 0 7 -7 4 -15z"/>
<path d="M13 161 c11 -83 94 -152 179 -150 l43 1 -62 19 c-48 15 -70 29 -98
62 -20 23 -39 54 -42 70 -9 46 -27 45 -20 -2z"/>
<path d="M1347 93 c-11 -10 -8 -51 3 -58 6 -4 10 8 10 29 0 37 -2 41 -13 29z"/>
<path d="M1173 74 c-8 -23 23 -52 39 -36 9 9 8 12 -5 12 -22 0 -22 27 1 33 12
4 11 5 -6 6 -12 0 -25 -6 -29 -15z"/>
<path d="M1846 75 c-21 -16 -15 -45 9 -45 10 0 15 10 15 30 0 34 1 34 -24 15z"/>
<path d="M2149 75 c-1 -8 -2 -21 -3 -27 -1 -7 11 -14 27 -15 18 -1 27 3 27 13
0 8 -4 14 -10 14 -5 0 -10 7 -10 15 0 8 -7 15 -15 15 -8 0 -16 -7 -16 -15z"/>
<path d="M2468 65 c7 -37 19 -39 24 -5 4 23 1 30 -12 30 -13 0 -16 -6 -12 -25z"/>
<path d="M2951 57 c0 -27 2 -29 9 -12 7 17 9 17 9 3 1 -10 6 -18 11 -18 17 0
11 25 -10 43 -19 16 -20 16 -19 -16z"/>
<path d="M1494 59 c-8 -14 11 -33 25 -25 16 10 13 36 -3 36 -8 0 -18 -5 -22
-11z"/>
<path d="M1663 55 c3 -25 30 -27 35 -2 2 9 -2 17 -8 17 -6 0 -8 -4 -5 -10 3
-5 2 -10 -4 -10 -5 0 -12 6 -15 13 -3 6 -5 3 -3 -8z"/>
<path d="M2626 61 c-7 -11 18 -33 27 -24 4 3 7 12 7 20 0 15 -26 18 -34 4z"/>
<path d="M2792 53 c5 -24 27 -28 25 -4 -1 12 -7 21 -15 21 -7 0 -12 -8 -10
-17z"/>
</g>
</svg>
