<svg width="140" height="33" fill="none" xmlns="http://www.w3.org/2000/svg"><rect y="8.8" width="26.88" height="19.2" rx="9.6" fill="#F6B141"/><rect x="14.02" y="6.5" width="20.92" height="14.2" rx="7.1" stroke="#F6B141" stroke-width="5"/><path d="M61.332 24.117h11.827V28H55.29v-2.836l11.602-16.71H55.306V4.54H72.9v2.772L61.332 24.117zm14.003-4.995c0-1.73.333-3.271.999-4.625.666-1.353 1.622-2.4 2.868-3.142 1.257-.741 2.713-1.112 4.367-1.112 2.352 0 4.27.72 5.752 2.16 1.493 1.439 2.326 3.394 2.498 5.865l.032 1.192c0 2.675-.746 4.823-2.24 6.445-1.493 1.612-3.496 2.417-6.01 2.417s-4.522-.805-6.026-2.417c-1.493-1.611-2.24-3.803-2.24-6.574v-.21zm4.657.338c0 1.654.311 2.922.934 3.803.623.87 1.515 1.305 2.675 1.305 1.128 0 2.009-.43 2.643-1.29.633-.87.95-2.255.95-4.156 0-1.622-.317-2.88-.95-3.77-.634-.893-1.526-1.338-2.675-1.338-1.139 0-2.02.446-2.643 1.337-.623.88-.934 2.25-.934 4.109zM100.134 28h-4.673V3.25h4.673V28zm14.454 0c-.215-.419-.371-.94-.467-1.563-1.128 1.257-2.595 1.885-4.399 1.885-1.708 0-3.126-.494-4.254-1.482-1.117-.988-1.676-2.235-1.676-3.738 0-1.848.682-3.266 2.046-4.254 1.375-.989 3.357-1.488 5.946-1.499h2.143v-.999c0-.806-.209-1.45-.628-1.934-.408-.483-1.058-.725-1.95-.725-.784 0-1.402.188-1.853.564-.44.376-.661.892-.661 1.547h-4.656c0-1.01.311-1.944.934-2.803.623-.86 1.504-1.531 2.643-2.015 1.139-.494 2.417-.74 3.835-.74 2.148 0 3.851.542 5.108 1.627 1.267 1.074 1.901 2.588 1.901 4.544v7.557c.011 1.654.242 2.905.693 3.754V28h-4.705zm-3.851-3.239a4.07 4.07 0 0 0 1.901-.45c.58-.313 1.01-.726 1.289-1.242v-2.997h-1.74c-2.331 0-3.572.806-3.722 2.417l-.016.274c0 .58.204 1.058.612 1.434.408.376.967.564 1.676.564zm16.226-14.196l.145 2.015c1.246-1.558 2.917-2.337 5.012-2.337 1.847 0 3.222.543 4.125 1.628.902 1.085 1.364 2.707 1.385 4.866V28h-4.656V16.85c0-.989-.215-1.703-.645-2.144-.43-.45-1.144-.676-2.143-.676-1.311 0-2.293.558-2.949 1.676V28h-4.656V10.565h4.382z" fill="#000"/></svg>