<?xml version="1.0" encoding="UTF-8"?>
<svg width="48px" height="17px" viewBox="0 0 48 17" version="1.1" xmlns="http://www.w3.org/2000/svg" xmlns:xlink="http://www.w3.org/1999/xlink">
    <title>logo 2</title>
    <g id="Page-1" stroke="none" stroke-width="1" fill="none" fill-rule="evenodd">
        <g id="logo" transform="translate(0.896000, 0.008000)" fill="#000000" fill-rule="nonzero">
            <g id="K">
                <polygon id="Path" points="0 0 3.024 0 3.024 7.2 3.168 7.2 10.2 0 14.28 0 6.336 7.848 14.808 16.992 10.56 16.992 3.192 8.64 3.024 8.64 3.024 16.992 0 16.992"></polygon>
            </g>
            <g id="K-Copy" transform="translate(39.404000, 8.496000) scale(-1, 1) translate(-39.404000, -8.496000) translate(32.000000, 0.000000)">
                <polygon id="Path" points="0 0 3.024 0 3.024 7.2 3.168 7.2 10.2 0 14.28 0 6.336 7.848 14.808 16.992 10.56 16.992 3.192 8.64 3.024 8.64 3.024 16.992 0 16.992"></polygon>
            </g>
        </g>
        <rect id="Rectangle" fill="#FFD257" transform="translate(24.500000, 8.207107) rotate(45.000000) translate(-24.500000, -8.207107) " x="18.5" y="2.20710678" width="12" height="12"></rect>
    </g>
</svg>